<?xml version="1.0" encoding="UTF-8"?>
<!DOCTYPE svg PUBLIC "-//W3C//DTD SVG 1.1//EN" "http://www.w3.org/Graphics/SVG/1.1/DTD/svg11.dtd">
<!-- Creator: CorelDRAW 2020 (64-Bit) -->
<svg xmlns="http://www.w3.org/2000/svg" xml:space="preserve" width="3.9688mm" height="4.2333mm" version="1.1" style="shape-rendering:geometricPrecision; text-rendering:geometricPrecision; image-rendering:optimizeQuality; fill-rule:evenodd; clip-rule:evenodd"
viewBox="0 0 43.15 46.03"
 xmlns:xlink="http://www.w3.org/1999/xlink"
 xmlns:xodm="http://www.corel.com/coreldraw/odm/2003">
 <defs>
  <style type="text/css">
   <![CDATA[
    .fil0 {fill:#EF7F1A}
   ]]>
  </style>
 </defs>
 <g id="Слой_x0020_1">
  <metadata id="CorelCorpID_0Corel-Layer"/>
  <path class="fil0" d="M10.83 0.1c-3.2,1.47 -6.23,3.03 -8.35,5.5 -2.14,2.49 -3.15,5.77 -2,10.36 3.36,13.42 14.86,24.85 27.61,29.55 3.44,1.11 7.31,0.43 9.86,-2.02 2.33,-2.24 4.35,-5.91 5.1,-9.1 0.49,-2.1 -0.79,-3.65 -2.53,-4.51l-10.45 -5.2c-2.65,-0.7 -4.03,2.58 -4.95,4.51 -4.12,-2.55 -7.25,-5.68 -9.39,-10.06 1.86,-0.99 4.94,-2.56 4.32,-5.19l-4.93 -11.32c-0.57,-1.88 -2.43,-2.97 -4.29,-2.52l0 -0z"/>
 </g>
</svg>
