<?xml version="1.0" encoding="UTF-8"?>
<!DOCTYPE svg PUBLIC "-//W3C//DTD SVG 1.1//EN" "http://www.w3.org/Graphics/SVG/1.1/DTD/svg11.dtd">
<!-- Creator: CorelDRAW 2020 (64-Bit) -->
<svg xmlns="http://www.w3.org/2000/svg" xml:space="preserve" width="67.7334mm" height="67.7334mm" version="1.1" style="shape-rendering:geometricPrecision; text-rendering:geometricPrecision; image-rendering:optimizeQuality; fill-rule:evenodd; clip-rule:evenodd"
viewBox="0 0 7167.56 7167.56"
 xmlns:xlink="http://www.w3.org/1999/xlink"
 xmlns:xodm="http://www.corel.com/coreldraw/odm/2003">
 <defs>
  <style type="text/css">
   <![CDATA[
    .fil0 {fill:#F08143;fill-rule:nonzero}
   ]]>
  </style>
 </defs>
 <g id="Слой_x0020_1">
  <metadata id="CorelCorpID_0Corel-Layer"/>
  <g id="_2777752757552">
   <g>
    <g>
     <path class="fil0" d="M3583.77 645.75c956.92,0 1070.26,3.64 1448.15,20.88 349.42,15.95 539.18,74.33 665.47,123.4 167.27,65.02 286.67,142.69 412.06,268.08 125.4,125.4 203.07,244.79 268.07,412.06 49.08,126.3 107.46,316.05 123.41,665.46 17.24,377.91 20.88,491.24 20.88,1448.16 0,956.91 -3.64,1070.24 -20.88,1448.14 -15.95,349.42 -74.33,539.18 -123.41,665.47 -65.01,167.27 -142.68,286.67 -268.07,412.06 -125.4,125.41 -244.79,203.08 -412.06,268.07 -126.3,49.08 -316.05,107.46 -665.47,123.41 -377.84,17.25 -491.18,20.89 -1448.15,20.89 -956.96,0 -1070.31,-3.64 -1448.14,-20.89 -349.42,-15.95 -539.18,-74.33 -665.46,-123.41 -167.28,-64.99 -286.68,-142.67 -412.07,-268.07 -125.41,-125.4 -203.08,-244.79 -268.07,-412.06 -49.08,-126.3 -107.46,-316.05 -123.41,-665.45 -17.25,-377.92 -20.89,-491.25 -20.89,-1448.16 0,-956.92 3.64,-1070.26 20.89,-1448.15 15.95,-349.42 74.33,-539.18 123.41,-665.47 64.99,-167.27 142.67,-286.67 268.07,-412.06 125.4,-125.4 244.79,-203.07 412.07,-268.08 126.29,-49.07 316.04,-107.45 665.44,-123.4 377.92,-17.24 491.25,-20.88 1448.16,-20.88l0 0zm0 -645.75c-973.3,0 -1095.32,4.13 -1477.58,21.57 -381.46,17.42 -641.97,77.99 -869.94,166.59 -235.66,91.58 -435.52,214.13 -634.75,413.35 -199.24,199.24 -321.78,399.09 -413.37,634.75 -88.59,227.98 -149.17,488.48 -166.58,869.95 -17.44,382.23 -21.56,504.28 -21.56,1477.58 0,973.3 4.12,1095.34 21.56,1477.58 17.41,381.46 77.99,641.97 166.58,869.94 91.59,235.65 214.13,435.52 413.37,634.75 199.23,199.24 399.09,321.78 634.75,413.37 227.97,88.59 488.48,149.17 869.94,166.58 382.25,17.44 504.28,21.56 1477.58,21.56 973.3,0 1095.34,-4.12 1477.58,-21.56 381.47,-17.41 641.97,-77.99 869.95,-166.58 235.66,-91.59 435.51,-214.13 634.75,-413.37 199.23,-199.23 321.78,-399.09 413.35,-634.75 88.6,-227.97 149.17,-488.48 166.59,-869.94 17.44,-382.23 21.57,-504.28 21.57,-1477.58 0,-973.3 -4.13,-1095.34 -21.57,-1477.58 -17.42,-381.47 -77.99,-641.97 -166.59,-869.95 -91.58,-235.66 -214.13,-435.51 -413.35,-634.75 -199.24,-199.23 -399.09,-321.78 -634.75,-413.35 -227.98,-88.6 -488.48,-149.17 -869.95,-166.59 -382.23,-17.44 -504.28,-21.57 -1477.58,-21.57zm0 1743.46c-1016.37,0 -1840.32,823.95 -1840.32,1840.33 0,1016.37 823.95,1840.32 1840.32,1840.32 1016.38,0 1840.33,-823.95 1840.33,-1840.32 0,-1016.38 -823.95,-1840.33 -1840.33,-1840.33zm0 3034.92c-659.75,0 -1194.59,-534.85 -1194.59,-1194.59 0,-659.76 534.85,-1194.6 1194.59,-1194.6 659.76,0 1194.6,534.85 1194.6,1194.6 0,659.75 -534.85,1194.59 -1194.6,1194.59zm2343.08 -3107.63c0,237.51 -192.53,430.06 -430.04,430.06 -237.51,0 -430.06,-192.55 -430.06,-430.06 0,-237.51 192.55,-430.04 430.06,-430.04 237.51,0 430.04,192.53 430.04,430.04z"/>
    </g>
   </g>
  </g>
 </g>
</svg>
